# xmcd
#
# Track frame offsets: 
#        150
#        11560
#        23655
#        38277
#        53095
#        66640
#        80642
#        101542
#        114480
#        128082
#        141075
#        151115
#
# Disc length: 2208 seconds
#
# Revision: 4
# Processed by: cddbd v1.5.2PL0 Copyright (c) Steve Scherf et al.
# Submitted via: ExactAudioCopy v1.0b3
#
DISCID=90089e0c
DTITLE=John Fogerty - The Blue Ridge Rangers
DYEAR=1991
DGENRE=
TTITLE0=Blue Ridge Mountain Blues
TTITLE1=Somewhere listening for my name
TTITLE2=You're The Reason
TTITLE3=Jambalaya On The Bayou
TTITLE4=She Thinks I Still Care
TTITLE5=California Blues(Blue Yodel #4)
TTITLE6=Workin' On A Building
TTITLE7=Please Help Me I'm Falling
TTITLE8=Have Thine Own Way Lord
TTITLE9=I Ain't Never
TTITLE10=Hearts Of Stone
TTITLE11=Today I Started Loving You Again
EXTD=
EXTT0=
EXTT1=
EXTT2=
EXTT3=
EXTT4=
EXTT5=
EXTT6=
EXTT7=
EXTT8=
EXTT9=
EXTT10=
EXTT11=
PLAYORDER=
